<svg xmlns="http://www.w3.org/2000/svg" xmlns:xlink="http://www.w3.org/1999/xlink" width="500" zoomAndPan="magnify" viewBox="0 0 375 374.999991" height="500" preserveAspectRatio="xMidYMid meet" version="1.0"><defs><g/><clipPath id="b5444546da"><path d="M 115 163 L 165.75 163 L 165.75 179 L 115 179 Z M 115 163 " clip-rule="nonzero"/></clipPath><clipPath id="984c45a7ca"><path d="M 37.5 161.152344 L 165.75 161.152344 L 165.75 211.402344 L 37.5 211.402344 Z M 37.5 161.152344 " clip-rule="nonzero"/></clipPath><clipPath id="d04ee1c9cc"><path d="M 145 148 L 192 148 L 192 220 L 145 220 Z M 145 148 " clip-rule="nonzero"/></clipPath><clipPath id="7c93be4071"><path d="M 145.15625 156.304688 L 168.265625 148.007812 L 191.117188 211.652344 L 168.003906 219.949219 Z M 145.15625 156.304688 " clip-rule="nonzero"/></clipPath><clipPath id="ed6845990e"><path d="M 145.15625 156.304688 L 168.265625 148.007812 L 191.085938 211.570312 L 167.976562 219.867188 Z M 145.15625 156.304688 " clip-rule="nonzero"/></clipPath></defs><g clip-path="url(#b5444546da)"><path fill="#bb2700" d="M 115.707031 178.367188 L 115.707031 163.507812 L 219.714844 163.507812 L 219.714844 178.367188 Z M 115.707031 178.367188 " fill-opacity="1" fill-rule="evenodd"/></g><path fill="#bb2700" d="M 45.648438 186.859375 L 45.648438 178.371094 L 89.164062 178.371094 L 89.164062 186.859375 Z M 45.648438 186.859375 " fill-opacity="1" fill-rule="evenodd"/><g clip-path="url(#984c45a7ca)"><path fill="#bb2700" d="M 37.960938 194.292969 C 38.257812 194.683594 38.972656 194.894531 40.277344 194.980469 C 40.933594 195.023438 41.585938 195.15625 41.730469 195.277344 C 41.886719 195.40625 43.035156 195.527344 44.664062 195.582031 C 46.929688 195.660156 47.449219 195.625 48.007812 195.355469 C 48.304688 195.21875 48.671875 195.140625 50.453125 195.128906 L 85.507812 196.398438 C 86.863281 196.304688 87.984375 196.628906 89.148438 197.300781 C 90.03125 197.847656 91.101562 198.730469 93.089844 200.457031 C 100.371094 207.363281 109.707031 210.722656 119.5625 211.347656 L 217.964844 211.320312 C 220.515625 210.988281 224.496094 209.691406 225.355469 207.644531 L 225.355469 164.925781 C 224.496094 162.878906 220.515625 161.582031 217.964844 161.25 L 119.5625 161.222656 C 109.707031 161.847656 100.371094 165.207031 93.089844 172.109375 C 90.769531 174.125 89.699219 174.996094 88.71875 175.515625 C 87.800781 176.09375 86.816406 176.125 85.773438 176.164062 L 50.453125 177.4375 C 48.675781 177.429688 48.304688 177.351562 48.007812 177.210938 C 47.449219 176.945312 46.929688 176.910156 44.664062 176.988281 C 43.035156 177.042969 41.886719 177.164062 41.730469 177.292969 C 41.585938 177.414062 40.933594 177.546875 40.277344 177.589844 C 38.972656 177.675781 38.257812 177.886719 37.960938 178.273438 C 37.550781 183.597656 37.515625 188.972656 37.960938 194.292969 Z M 49.3125 180.917969 L 49.3125 179.988281 L 82.746094 179.988281 L 82.746094 180.917969 Z M 121.378906 170.515625 L 218.144531 170.515625 L 218.144531 171.628906 L 121.378906 171.628906 Z M 121.378906 166.613281 L 218.144531 166.613281 L 218.144531 169.027344 L 121.378906 169.027344 Z M 121.378906 166.613281 " fill-opacity="1" fill-rule="nonzero"/></g><g clip-path="url(#d04ee1c9cc)"><g clip-path="url(#7c93be4071)"><g clip-path="url(#ed6845990e)"><path fill="#fffaf4" d="M 145.15625 156.304688 L 168.265625 148.007812 L 191.082031 211.5625 L 167.972656 219.859375 Z M 145.15625 156.304688 " fill-opacity="1" fill-rule="nonzero"/></g></g></g><g fill="#bb2700" fill-opacity="1"><g transform="translate(151.812578, 211.234208)"><g><path d="M 20.785156 0 L 28.300781 0 L 36.039062 -21.964844 L 43.707031 0 L 51.222656 0 L 67.511719 -46.507812 C 68.25 -48.644531 69.648438 -49.824219 72.007812 -49.75 L 72.007812 -50.414062 C 68.542969 -50.414062 63.238281 -50.414062 59.699219 -50.414062 L 59.699219 -49.75 C 61.984375 -49.824219 63.3125 -49.308594 64.046875 -47.171875 C 64.195312 -46.582031 64.417969 -46.066406 64.5625 -45.546875 C 65.007812 -44.296875 64.933594 -43.191406 64.492188 -41.9375 L 50.488281 -1.84375 L 34.933594 -46.285156 C 34.050781 -48.71875 35.378906 -49.824219 37.808594 -49.75 L 37.808594 -50.414062 L 22.921875 -50.414062 L 22.921875 -49.75 C 25.5 -49.824219 26.679688 -48.496094 27.492188 -46.285156 L 35.304688 -23.953125 L 27.566406 -1.84375 L 12.011719 -46.285156 C 11.128906 -48.71875 12.457031 -49.824219 14.886719 -49.75 L 14.886719 -50.414062 L 0 -50.414062 L 0 -49.75 C 2.578125 -49.824219 3.757812 -48.496094 4.570312 -46.285156 Z M 20.785156 0 "/></g></g></g><g fill="#bb2700" fill-opacity="1"><g transform="translate(225.873271, 211.234208)"><g><path d="M 16.4375 -50.414062 L 0 -50.414062 L 0 -49.75 C 3.167969 -49.898438 4.71875 -47.761719 4.71875 -39.945312 L 4.71875 -10.390625 C 4.71875 -2.578125 3.167969 -0.515625 0 -0.664062 L 0 0 L 16.4375 0 L 16.4375 -0.664062 C 13.265625 -0.515625 11.71875 -2.578125 11.71875 -10.390625 L 11.71875 -39.945312 C 11.71875 -47.761719 13.265625 -49.898438 16.4375 -49.75 Z M 16.4375 -50.414062 "/></g></g></g><g fill="#bb2700" fill-opacity="1"><g transform="translate(244.44371, 211.234208)"><g><path d="M 39.945312 -39.945312 C 39.945312 -47.761719 41.496094 -49.898438 44.738281 -49.75 L 44.738281 -50.414062 L 33.902344 -50.414062 L 33.902344 -49.75 C 37.148438 -49.898438 38.695312 -47.761719 38.695312 -39.945312 L 38.695312 -15.476562 C 32.722656 -27.933594 21.742188 -40.019531 10.90625 -50.414062 L 0 -50.414062 L 0 -49.75 C 3.167969 -49.898438 4.71875 -47.761719 4.71875 -39.945312 L 4.71875 -10.390625 C 4.71875 -2.578125 3.167969 -0.515625 0 -0.664062 L 0 0 L 10.761719 0 L 10.761719 -0.664062 C 7.589844 -0.515625 6.042969 -2.578125 6.042969 -10.390625 L 6.042969 -46.210938 C 19.382812 -33.609375 32.796875 -18.058594 37.589844 0 L 39.945312 0 Z M 39.945312 -39.945312 "/></g></g></g><g fill="#bb2700" fill-opacity="1"><g transform="translate(291.311965, 211.234208)"><g><path d="M 0 0 L 39.0625 0 L 43.265625 -13.265625 L 42.675781 -13.265625 C 39.945312 -6.484375 31.914062 -1.328125 24.691406 -1.328125 L 11.71875 -1.328125 L 11.71875 -21.449219 C 14.519531 -25.355469 18.425781 -23.363281 22.039062 -22.183594 C 28.523438 -19.972656 32.945312 -21.59375 35.453125 -28.890625 L 34.863281 -29.1875 C 32.0625 -24.910156 28.007812 -26.976562 24.394531 -28.226562 C 18.5 -30.21875 14.296875 -29.113281 11.71875 -23.511719 L 11.71875 -49.085938 L 25.132812 -49.085938 C 31.101562 -49.085938 38.105469 -44.960938 40.390625 -39.285156 L 41.054688 -39.285156 L 37.957031 -50.414062 L 0 -50.414062 L 0 -49.75 C 3.167969 -49.898438 4.71875 -47.761719 4.71875 -39.945312 L 4.71875 -10.390625 C 4.71875 -2.578125 3.167969 -0.515625 0 -0.664062 Z M 0 0 "/></g></g></g><g fill="#fffaf4" fill-opacity="1"><g transform="translate(142.214156, 204.357542)"><g><path d="M 0 -25.355469 L -20.769531 -34.089844 C -23.707031 -35.378906 -26.886719 -34.695312 -28.09375 -31.59375 C -29.382812 -28.335938 -27.488281 -24.996094 -23.546875 -23.425781 L -17.871094 -20.96875 L -28.457031 -16.582031 L -28.457031 -13.203125 L -13.84375 -19.277344 L -4.023438 -15.171875 L -28.457031 -4.910156 L -28.457031 -1.410156 L 0 -13.441406 L 0 -13.804688 L -13.484375 -19.398438 L 0 -25.074219 Z M -17.425781 -21.210938 L -23.546875 -23.707031 C -26.726562 -25.074219 -29.140625 -28.011719 -27.851562 -31.515625 C -26.683594 -34.492188 -23.546875 -35.015625 -20.769531 -33.890625 L -4.023438 -26.804688 Z M -17.425781 -21.210938 "/></g></g></g></svg>